<svg xmlns="http://www.w3.org/2000/svg" width="91" height="80" viewBox="0 0 91 80">
<g>
<path d="M 52.28 73.99 C48.17,76.42 41.00,76.74 41.00,74.50 C41.00,73.41 42.12,73.00 45.05,73.00 C50.44,73.00 53.97,69.60 54.08,64.30 C54.12,62.21 54.38,61.06 54.66,61.75 C54.94,62.44 55.80,63.00 56.58,63.00 C60.28,63.00 57.09,71.16 52.28,73.99 Z" fill="rgb(21,59,30)"/>
<path d="M 43.85 73.03 C41.81,73.14 41.00,73.58 41.00,74.50 C41.00,75.38 42.11,75.87 43.71,75.98 C40.79,75.88 39.42,75.14 36.65,72.45 C33.81,69.69 33.00,68.12 33.00,65.37 C33.00,63.43 31.63,58.72 29.96,54.91 C28.29,51.11 27.05,46.76 27.21,45.25 L 27.50 42.50 L 20.89 42.84 C14.66,43.16 14.07,43.00 10.64,39.99 C6.55,36.39 6.23,35.30 8.75,33.39 C10.77,31.86 21.67,31.52 22.17,32.97 C22.65,34.38 27.21,34.71 27.68,33.37 C27.90,32.75 26.05,31.05 23.56,29.59 C21.07,28.13 18.58,26.08 18.02,25.03 C16.09,21.43 16.98,12.21 19.55,9.17 C19.89,8.77 25.39,13.41 29.10,17.22 C32.28,20.49 33.00,22.78 31.83,25.94 L 30.95 28.30 L 28.48 25.98 C25.65,23.33 23.82,24.04 26.34,26.82 C27.25,27.83 28.00,29.14 28.00,29.73 C28.00,30.33 30.02,32.00 32.49,33.44 C36.79,35.96 39.93,40.18 40.74,44.50 C41.48,48.52 40.96,53.13 39.50,55.36 C38.68,56.61 37.59,59.86 37.08,62.57 C36.21,67.15 36.33,67.69 38.76,70.25 C40.26,71.83 42.04,72.72 43.85,73.03 ZM 58.00 63.83 C57.76,63.31 57.30,63.00 56.58,63.00 C55.80,63.00 54.94,62.44 54.66,61.75 C54.38,61.06 54.12,62.21 54.08,64.30 C54.01,67.82 52.43,70.50 49.79,71.91 C52.24,70.44 54.00,67.76 54.00,64.27 C54.00,62.17 53.37,59.54 52.60,58.44 C51.83,57.34 50.68,54.54 50.06,52.22 C48.21,45.37 50.06,41.23 58.65,32.98 C62.69,29.10 66.00,25.50 66.00,24.96 C66.00,23.71 65.38,23.75 63.12,25.16 C60.58,26.74 58.00,25.54 58.02,22.78 C58.04,21.27 60.05,18.72 63.95,15.25 C67.19,12.36 70.09,10.00 70.40,10.00 C71.82,10.00 74.05,16.47 73.84,20.00 C73.63,23.66 70.40,29.31 68.34,29.63 C65.50,30.09 63.00,31.40 63.00,32.45 C63.00,34.68 64.22,34.93 67.75,33.46 C71.53,31.88 74.97,31.64 79.88,32.62 C83.85,33.42 84.08,36.63 80.42,40.08 C78.18,42.18 76.87,42.50 70.67,42.50 L 63.50 42.50 L 63.25 46.94 C63.11,49.38 62.54,51.67 61.98,52.01 C61.41,52.36 60.77,53.60 60.55,54.76 C60.32,55.92 59.66,57.77 59.07,58.87 C58.49,59.96 58.01,62.18 58.00,63.83 ZM 52.28 73.99 C54.44,72.72 56.28,70.37 57.31,68.17 C56.44,70.59 54.77,72.53 52.28,73.99 Z" fill="rgb(33,83,48)"/>
<path d="M 0.00 40.00 L 0.00 0.00 L 45.50 0.00 L 91.00 0.00 L 91.00 40.00 L 91.00 80.00 L 45.50 80.00 L 0.00 80.00 L 0.00 40.00 ZM 52.28 73.99 C56.09,71.75 58.00,68.38 58.00,63.89 C58.00,62.23 58.48,59.97 59.07,58.87 C59.66,57.77 60.32,55.92 60.55,54.76 C60.77,53.60 61.41,52.36 61.98,52.01 C62.54,51.67 63.11,49.38 63.25,46.94 L 63.50 42.50 L 70.67 42.50 C76.87,42.50 78.18,42.18 80.42,40.08 C84.08,36.63 83.85,33.42 79.88,32.62 C74.97,31.64 71.53,31.88 67.75,33.46 C64.22,34.93 63.00,34.68 63.00,32.45 C63.00,31.40 65.50,30.09 68.34,29.63 C70.40,29.31 73.63,23.66 73.84,20.00 C74.05,16.47 71.82,10.00 70.40,10.00 C70.09,10.00 67.19,12.36 63.95,15.25 C60.05,18.72 58.04,21.27 58.02,22.78 C58.00,25.54 60.58,26.74 63.12,25.16 C65.38,23.75 66.00,23.71 66.00,24.96 C66.00,25.50 62.69,29.10 58.65,32.98 C50.06,41.23 48.21,45.37 50.06,52.22 C50.68,54.54 51.83,57.34 52.60,58.44 C53.37,59.54 54.00,62.17 54.00,64.27 C54.00,72.42 44.41,76.19 38.76,70.25 C36.33,67.69 36.21,67.15 37.08,62.57 C37.59,59.86 38.68,56.61 39.50,55.36 C40.96,53.13 41.48,48.52 40.74,44.50 C39.93,40.18 36.79,35.96 32.49,33.44 C30.02,32.00 28.00,30.33 28.00,29.73 C28.00,29.14 27.25,27.83 26.34,26.82 C23.82,24.04 25.65,23.33 28.48,25.98 L 30.95 28.30 L 31.83 25.94 C33.00,22.78 32.28,20.49 29.10,17.22 C25.39,13.41 19.89,8.77 19.55,9.17 C16.98,12.21 16.09,21.43 18.02,25.03 C18.58,26.08 21.07,28.13 23.56,29.59 C26.05,31.05 27.90,32.75 27.68,33.37 C27.21,34.71 22.65,34.38 22.17,32.97 C21.67,31.52 10.77,31.86 8.75,33.39 C6.23,35.30 6.55,36.39 10.64,39.99 C14.07,43.00 14.66,43.16 20.89,42.84 L 27.50 42.50 L 27.21 45.25 C27.05,46.76 28.29,51.11 29.96,54.91 C31.63,58.72 33.00,63.43 33.00,65.37 C33.00,68.12 33.81,69.69 36.65,72.45 C39.69,75.40 41.04,76.00 44.60,76.00 C47.09,76.00 50.31,75.16 52.28,73.99 Z" fill="rgb(233,236,224)"/>
</g>
</svg>