<svg xmlns="http://www.w3.org/2000/svg" width="91" height="80" viewBox="0 0 91 80">
<g>
<path d="M 39.50 75.05 C35.89,73.58 33.71,70.10 32.82,64.37 C32.33,61.27 30.82,56.85 29.47,54.53 C27.93,51.91 27.00,48.78 27.00,46.22 L 27.00 42.12 L 20.21 42.69 C13.50,43.25 13.37,43.21 9.71,39.76 C7.67,37.84 6.00,35.84 6.00,35.32 C6.00,33.91 12.66,30.99 15.78,31.04 C17.28,31.05 19.62,31.71 21.00,32.50 C22.38,33.29 24.29,33.95 25.25,33.96 C28.05,34.02 27.27,31.35 24.10,30.04 C19.03,27.94 16.65,24.53 16.57,19.25 C16.53,16.64 17.12,13.03 17.88,11.23 L 19.26 7.97 L 22.38 10.96 C24.09,12.60 27.05,15.25 28.95,16.85 C31.80,19.24 32.39,20.39 32.30,23.44 C32.24,25.48 31.96,27.37 31.68,27.65 C30.78,28.56 26.15,24.92 24.06,21.66 C22.87,19.81 22.03,19.15 22.02,20.07 C21.99,22.30 26.60,28.05 32.89,33.65 C41.51,41.31 42.82,46.75 38.50,57.00 C35.17,64.91 35.29,67.23 39.20,70.52 C41.88,72.77 43.06,73.12 46.44,72.67 C54.09,71.64 55.85,66.16 51.51,56.85 C47.02,47.20 48.90,40.66 58.56,32.32 C64.17,27.48 68.00,22.44 68.00,19.90 C68.00,19.15 66.87,20.20 65.48,22.24 C63.26,25.51 60.27,28.00 58.57,28.00 C58.25,28.00 58.00,26.15 58.00,23.88 C58.00,20.50 58.56,19.30 61.14,17.13 C62.87,15.69 65.79,13.01 67.64,11.18 L 71.00 7.86 L 72.10 10.68 C74.16,15.94 74.30,20.57 72.52,24.32 C71.58,26.31 70.06,28.18 69.15,28.48 C66.14,29.49 62.70,32.71 63.41,33.86 C63.90,34.65 65.26,34.40 68.01,32.99 C72.65,30.63 75.84,30.49 80.53,32.45 C84.94,34.29 84.90,36.00 80.36,39.99 C76.93,43.00 76.34,43.17 70.15,42.84 L 63.59 42.50 L 63.45 46.00 C63.38,47.92 62.14,51.75 60.70,54.50 C59.26,57.25 57.78,61.53 57.40,64.00 C56.51,69.95 55.50,71.73 51.69,74.05 C48.41,76.05 43.02,76.49 39.50,75.05 ZM 48.00 68.52 C48.00,68.26 48.90,66.57 50.00,64.77 C51.95,61.57 51.99,61.56 52.00,64.05 C52.00,65.45 51.46,67.14 50.80,67.80 C49.60,69.00 48.00,69.42 48.00,68.52 Z" fill="rgba(0,0,0,1)"/>
</g>
</svg>